<svg width="58" height="58" viewBox="0 0 58 58" fill="none" xmlns="http://www.w3.org/2000/svg">
<path d="M39.875 28.9999C39.8776 26.921 39.2032 24.8978 37.9538 23.2362L42.775 18.4512C43.7178 18.8433 44.7265 19.0525 45.7475 19.0674C46.6711 19.0964 47.5914 18.9431 48.4558 18.6163C49.3201 18.2894 50.1116 17.7954 50.7849 17.1625C51.4582 16.5296 52.0002 15.7702 52.3798 14.9277C52.7595 14.0852 52.9694 13.1761 52.9975 12.2524C52.9975 10.3296 52.2337 8.48556 50.874 7.12592C49.5144 5.76628 47.6703 5.00244 45.7475 5.00244C43.8247 5.00244 41.9806 5.76628 40.621 7.12592C39.2613 8.48556 38.4975 10.3296 38.4975 12.2524C38.5021 13.3738 38.8022 14.474 39.3675 15.4424L34.5463 20.2637C32.8515 19.3151 30.9422 18.8159 29 18.8137C26.602 18.7806 24.2604 19.5412 22.3394 20.977C20.4185 22.4127 19.026 24.4432 18.3788 26.7524H15.8775C15.33 25.3987 14.3865 24.2418 13.1705 23.4333C11.9545 22.6248 10.5226 22.2023 9.0625 22.2212C7.2032 22.1625 5.39637 22.8428 4.03757 24.1133C2.67877 25.3838 1.8787 27.1409 1.8125 28.9999C1.84062 29.9236 2.05051 30.8327 2.43017 31.6752C2.80982 32.5177 3.3518 33.2771 4.02511 33.91C4.69843 34.5429 5.48988 35.0369 6.35423 35.3638C7.21858 35.6906 8.13887 35.8439 9.0625 35.8149C10.5226 35.8338 11.9545 35.4114 13.1705 34.6028C14.3865 33.7943 15.33 32.6374 15.8775 31.2837H18.3788C19.026 33.5929 20.4185 35.6234 22.3394 37.0592C24.2604 38.4949 26.602 39.2555 29 39.2224C30.3854 39.266 31.7659 39.036 33.0624 38.5457C34.3589 38.0554 35.5461 37.3144 36.5561 36.365C37.5661 35.4156 38.379 34.2765 38.9485 33.0128C39.518 31.749 39.8328 30.3854 39.875 28.9999V28.9999ZM45.7475 10.0049C46.4057 9.94433 47.0611 10.1467 47.5705 10.5678C48.0799 10.989 48.402 11.5946 48.4663 12.2524C48.3606 12.8973 48.0292 13.4836 47.5312 13.9067C47.0331 14.3297 46.401 14.562 45.7475 14.562C45.094 14.562 44.4619 14.3297 43.9639 13.9067C43.4658 13.4836 43.1344 12.8973 43.0288 12.2524C43.102 11.5984 43.4265 10.9984 43.9337 10.579C44.441 10.1597 45.0913 9.95384 45.7475 10.0049ZM9.0625 31.2837C8.40068 31.3342 7.7454 31.1235 7.23716 30.6965C6.72892 30.2696 6.4082 29.6606 6.34375 28.9999C6.41698 28.3459 6.74147 27.7459 7.24873 27.3265C7.756 26.9072 8.40634 26.7013 9.0625 26.7524C9.71866 26.7013 10.369 26.9072 10.8763 27.3265C11.3835 27.7459 11.708 28.3459 11.7813 28.9999C11.7168 29.6606 11.3961 30.2696 10.8878 30.6965C10.3796 31.1235 9.72432 31.3342 9.0625 31.2837V31.2837ZM29 34.6912C27.4059 34.7704 25.845 34.2169 24.657 33.151C23.4689 32.0852 22.7499 30.5933 22.6563 28.9999C22.7497 27.4096 23.47 25.9212 24.6592 24.8612C25.8484 23.8011 27.4094 23.2558 29 23.3449C30.5882 23.2654 32.1439 23.814 33.331 24.8722C34.518 25.9303 35.241 27.4131 35.3438 28.9999C35.241 30.5899 34.5192 32.0762 33.3333 33.1401C32.1474 34.2041 30.5917 34.7609 29 34.6912V34.6912Z" fill="#262626"/>
<path d="M9.0625 15.8775C10.0857 15.8842 11.0988 15.6742 12.035 15.2613L18.415 21.75C19.3388 20.5164 20.4667 19.4498 21.75 18.5963L15.4425 12.2525C16.0078 11.2841 16.3079 10.1838 16.3125 9.06253C16.2463 7.20348 15.4462 5.44638 14.0874 4.1759C12.7286 2.90542 10.9218 2.22507 9.0625 2.28378C7.2032 2.22507 5.39637 2.90542 4.03757 4.1759C2.67877 5.44638 1.87869 7.20348 1.8125 9.06253C1.84062 9.98619 2.05051 10.8953 2.43017 11.7377C2.80982 12.5802 3.3518 13.3397 4.02511 13.9726C4.69843 14.6055 5.48988 15.0995 6.35423 15.4264C7.21858 15.7532 8.13887 15.9065 9.0625 15.8775V15.8775ZM9.0625 6.81503C9.71866 6.76393 10.369 6.96978 10.8763 7.38911C11.3835 7.80845 11.708 8.40847 11.7812 9.06253C11.7168 9.72314 11.3961 10.3322 10.8878 10.7591C10.3796 11.186 9.72432 11.3968 9.0625 11.3463C8.40068 11.3968 7.7454 11.186 7.23716 10.7591C6.72892 10.3322 6.4082 9.72314 6.34375 9.06253C6.41698 8.40847 6.74147 7.80845 7.24873 7.38911C7.75599 6.96978 8.40634 6.76393 9.0625 6.81503ZM48.9375 42.1588C47.9143 42.1521 46.9012 42.3622 45.965 42.775L39.585 36.25C38.641 37.4479 37.5012 38.4774 36.2137 39.295L42.5212 45.6025C41.967 46.5738 41.6794 47.6743 41.6875 48.7925C41.6875 50.7154 42.4513 52.5594 43.811 53.9191C45.1706 55.2787 47.0147 56.0425 48.9375 56.0425C50.8603 56.0425 52.7044 55.2787 54.064 53.9191C55.4237 52.5594 56.1875 50.7154 56.1875 48.7925C56.0844 46.9591 55.2682 45.2388 53.9134 43.9992C52.5587 42.7596 50.7728 42.0991 48.9375 42.1588V42.1588ZM48.9375 51.2213C48.2757 51.2718 47.6204 51.061 47.1122 50.6341C46.6039 50.2072 46.2832 49.5981 46.2188 48.9375C46.3244 48.2927 46.6558 47.7064 47.1538 47.2833C47.6519 46.8603 48.284 46.628 48.9375 46.628C49.591 46.628 50.2231 46.8603 50.7212 47.2833C51.2192 47.7064 51.5506 48.2927 51.6562 48.9375C51.5918 49.5981 51.2711 50.2072 50.7628 50.6341C50.2546 51.061 49.5993 51.2718 48.9375 51.2213V51.2213Z" fill="#262626"/>
</svg>
